<svg width="16" height="15" viewBox="0 0 16 15" fill="none" xmlns="http://www.w3.org/2000/svg">
<path d="M3.33638 1.85111C3.33718 2.05913 3.297 2.26526 3.21814 2.45775C3.13928 2.65023 3.02327 2.8253 2.87675 2.97296C2.73023 3.12061 2.55606 3.23796 2.36418 3.3183C2.17231 3.39864 1.96649 3.44041 1.75848 3.44121C1.55046 3.44041 1.34464 3.39864 1.15277 3.3183C0.960892 3.23796 0.786722 3.12061 0.6402 2.97296C0.493677 2.8253 0.377673 2.65023 0.298809 2.45775C0.219946 2.26526 0.179768 2.05913 0.18057 1.85111C0.17895 1.43107 0.344155 1.02756 0.639884 0.729263C0.935613 0.430963 1.33767 0.26227 1.75771 0.260254C1.96589 0.260953 2.17189 0.302662 2.36395 0.382998C2.556 0.463334 2.73035 0.580723 2.87702 0.728458C3.02369 0.876193 3.13982 1.05138 3.21877 1.24401C3.29772 1.43664 3.33718 1.64293 3.33638 1.85111ZM3.34857 4.71359H0.167618V14.8926H3.34857V4.71359ZM8.42667 4.71359H5.26628V14.8926H8.42743V9.5494C8.42743 6.57797 12.2629 6.33568 12.2629 9.5494V14.8926H15.4362V8.44768C15.4362 3.43511 9.76 3.61721 8.42667 6.08578V4.71359Z" fill="black"/>
</svg>
