<svg width="16" height="13" viewBox="0 0 16 13" fill="none" xmlns="http://www.w3.org/2000/svg">
<path d="M16 1.63839C15.4284 1.89168 14.822 2.05785 14.2011 2.13134C14.8553 1.7402 15.3446 1.12434 15.5779 0.39877C14.9632 0.763648 14.2907 1.02081 13.5893 1.15915C13.2963 0.846227 12.942 0.596895 12.5486 0.426637C12.1551 0.25638 11.7308 0.168834 11.3021 0.169437C9.28 0.169437 7.79353 2.05667 8.25067 4.01553C7.00515 3.95315 5.78668 3.6295 4.67438 3.0656C3.56207 2.5017 2.5808 1.71017 1.79429 0.742389C1.39374 1.43214 1.271 2.24858 1.45103 3.02562C1.63107 3.80266 2.10035 4.48193 2.76343 4.92525C2.26627 4.90938 1.78011 4.77484 1.34553 4.53287C1.31124 5.98429 2.35124 7.34201 3.85753 7.64448C3.39612 7.76978 2.91219 7.78802 2.44267 7.69782C2.64265 8.32033 3.0323 8.86471 3.55706 9.25477C4.08181 9.64482 4.71541 9.861 5.36914 9.87306C4.05614 10.9028 2.38818 11.3695 0.73143 11.1706C2.16392 12.0909 3.83106 12.5795 5.53372 12.5778C11.3493 12.5778 14.6354 7.66582 14.4366 3.25972C15.0497 2.81652 15.5791 2.26778 16 1.63915V1.63839Z" fill="black"/>
</svg>
