<svg width="14" height="16" viewBox="0 0 14 16" fill="none" xmlns="http://www.w3.org/2000/svg">
<path d="M2.52305 0.498047H3.43886L4.06743 2.85309L4.65028 0.498809H5.57524L4.51619 3.99976V6.38986H3.60571V4.00052L2.52305 0.498047ZM6.71809 2.00814C6.00648 2.00814 5.53409 2.479 5.53409 3.17538V5.30567C5.53409 6.07214 5.93409 6.47138 6.71809 6.47138C7.368 6.47138 7.88 6.03633 7.88 5.30567V3.17538C7.88 2.495 7.37257 2.00814 6.71809 2.00814ZM7.05562 5.26909C7.05562 5.50605 6.93524 5.68052 6.71733 5.68052C6.49409 5.68052 6.36533 5.49767 6.36533 5.26909V3.24776C6.36533 3.01005 6.47428 2.83405 6.70133 2.83405C6.94971 2.83405 7.05562 3.00471 7.05562 3.24776V5.27062V5.26909ZM10.0651 2.04395V5.343C9.96609 5.46719 9.74667 5.66909 9.58895 5.66909C9.41676 5.66909 9.37409 5.551 9.37409 5.37652V2.04395H8.56647V5.67671C8.56647 6.10643 8.69752 6.45309 9.13028 6.45309C9.37486 6.45309 9.71467 6.32586 10.0644 5.91062V6.39062H10.872V2.04319H10.0644L10.0651 2.04395ZM11.4663 10.8607C11.1813 10.8607 11.1219 11.0611 11.1219 11.346V11.7651H11.8023V11.3453C11.8023 11.0657 11.7436 10.8607 11.4663 10.8607ZM8.47429 10.8859C8.41406 10.9182 8.35992 10.9607 8.31429 11.0116V13.5914C8.36624 13.6504 8.42812 13.6999 8.49714 13.7377C8.62286 13.8009 8.80571 13.8055 8.89105 13.695C8.936 13.6363 8.95809 13.5411 8.95809 13.4093V11.2721C8.95809 11.132 8.93067 11.0268 8.87581 10.9537C8.78286 10.8318 8.60914 10.818 8.47429 10.8859ZM11.5448 7.58071C9.88838 7.46871 4.50476 7.46871 2.85143 7.58071C1.06095 7.70262 0.849142 8.78452 0.836189 11.6318C0.849142 14.4737 1.05867 15.5601 2.85067 15.682C4.50476 15.7948 9.88838 15.7948 11.5448 15.682C13.3352 15.5601 13.5463 14.4782 13.56 11.6318C13.5463 8.78986 13.3368 7.70338 11.5448 7.58071ZM3.70476 14.3792H2.83771V9.58224H1.94019V8.76776H4.60076V9.583H3.704V14.3792H3.70476ZM6.78743 14.3792H6.0179V13.922C5.87619 14.0912 5.72838 14.2192 5.57524 14.3076C5.16 14.5453 4.59086 14.54 4.59086 13.6996V10.2405H5.36038V13.4139C5.36038 13.58 5.4 13.692 5.56457 13.692C5.71467 13.692 5.92343 13.4992 6.01714 13.3826V10.2398H6.78667V14.3784L6.78743 14.3792ZM9.75047 13.522C9.75047 14.034 9.55848 14.4318 9.04648 14.4318C8.76457 14.4318 8.5299 14.3289 8.31505 14.0615V14.3792H7.53867V8.76776H8.31581V10.575C8.48952 10.3632 8.72495 10.188 9 10.188C9.56381 10.188 9.75124 10.6649 9.75124 11.2257V13.522H9.75047ZM12.5947 12.4074H11.1227V13.1883C11.1227 13.4992 11.1493 13.7674 11.4579 13.7674C11.7832 13.7674 11.8023 13.5487 11.8023 13.1883V12.9011H12.5947V13.212C12.5947 14.0089 12.2518 14.492 11.4411 14.492C10.7067 14.492 10.3303 13.9571 10.3303 13.212V11.3521C10.3303 10.6344 10.805 10.1354 11.499 10.1354C12.2381 10.1354 12.5939 10.6047 12.5939 11.3529V12.4066L12.5947 12.4074Z" fill="black"/>
</svg>
